<?xml version="1.0" standalone="no"?>
<!DOCTYPE svg PUBLIC "-//W3C//DTD SVG 20010904//EN"
 "http://www.w3.org/TR/2001/REC-SVG-20010904/DTD/svg10.dtd">
<svg version="1.0" xmlns="http://www.w3.org/2000/svg"
 width="512.000000pt" height="512.000000pt" viewBox="0 0 512.000000 512.000000"
 preserveAspectRatio="xMidYMid meet">

<g transform="translate(0.000000,512.000000) scale(0.100000,-0.100000)"
fill="#000000" stroke="none">
<path d="M3423 5095 c-327 -88 -582 -477 -610 -927 l-6 -108 -494 0 -493 0 0
-186 0 -185 75 -71 c277 -261 600 -441 960 -533 189 -49 314 -65 550 -72 175
-5 221 -3 275 11 266 67 494 331 584 679 13 51 27 118 31 150 l7 57 154 0 154
0 0 -1887 c0 -1885 0 -1887 21 -1929 21 -45 81 -84 129 -84 48 0 108 39 129
84 21 42 21 44 21 1928 l0 1886 55 4 c91 8 150 66 150 148 0 82 -59 140 -150
148 l-55 4 0 186 c0 167 -2 190 -21 228 -21 45 -81 84 -129 84 -48 0 -108 -39
-129 -84 -19 -38 -21 -61 -21 -229 l0 -187 -154 0 -154 0 -17 98 c-46 257
-161 483 -319 628 -153 140 -373 204 -543 159z"/>
<path d="M293 4690 c-30 -15 -48 -34 -62 -64 -19 -38 -21 -61 -21 -228 l0
-186 -55 -4 c-91 -8 -150 -66 -150 -148 0 -82 59 -140 150 -148 l55 -4 2
-1898 3 -1899 21 -27 c37 -50 72 -69 124 -69 52 0 87 19 124 69 l21 27 3 1900
2 1899 160 0 c139 0 160 2 160 16 0 8 11 44 25 79 l26 64 -19 38 c-11 21 -23
53 -27 71 l-7 32 -158 0 -159 0 -3 199 c-3 183 -5 202 -24 227 -52 70 -121 89
-191 54z"/>
<path d="M1833 2991 c-73 -34 -100 -108 -73 -201 6 -19 13 -71 16 -115 9 -117
-15 -234 -101 -495 -118 -358 -155 -547 -141 -730 17 -221 112 -443 254 -594
l43 -46 365 0 364 0 0 -401 0 -400 468 3 c519 4 504 2 610 75 107 73 165 186
165 323 0 137 -58 250 -165 323 -75 52 -129 68 -244 74 l-102 6 58 69 c240
285 305 669 173 1009 -82 210 -261 430 -467 574 -83 58 -126 66 -190 36 -52
-26 -74 -64 -101 -178 -9 -40 -20 -73 -24 -73 -4 0 -21 28 -37 62 -122 260
-403 525 -697 658 -89 40 -123 44 -174 21z"/>
</g>
</svg>
